<?xml version="1.0" encoding="utf-8"?>
<!-- Generator: Adobe Illustrator 21.0.0, SVG Export Plug-In . SVG Version: 6.00 Build 0)  -->
<svg version="1.1" id="Layer_1" xmlns="http://www.w3.org/2000/svg" xmlns:xlink="http://www.w3.org/1999/xlink" x="0px" y="0px"
	 viewBox="0 0 484.4 127.2" style="enable-background:new 0 0 484.4 127.2;" xml:space="preserve">
<style type="text/css">
	.st0{fill:#FFFFFF;}
</style>
<g id="Layer_2">
	<g id="Layer_1-2">
		<path class="st0" d="M108.6,98.7v-75h50.6v7.1c0,3.9-3.2,7.1-7.1,7.1h-26.7v14.7h30v6.8c0,3.9-3.1,7-7,7h-23v18.1h36.2v7.1
			c0,3.9-3.2,7.1-7.1,7.1c0,0,0,0,0,0H108.6z"/>
		<path class="st0" d="M207,51.7l14.3-24.6c1.2-2.1,3.5-3.4,5.9-3.4h14.7L215.1,70v28.7h-16.9V70.2l-26.8-46.5h14.7
			c3,0,5.8,1.6,7.3,4.3L207,51.7z"/>
		<path class="st0" d="M319.7,61.1c0.1,5.8-0.9,11.5-2.9,16.9c-1.7,4.6-4.4,8.8-7.9,12.2c-3.4,3.3-7.4,5.8-11.8,7.4
			c-4.7,1.7-9.7,2.5-14.8,2.5c-4.9,0-9.8-0.8-14.5-2.5c-4.4-1.6-8.5-4.1-11.9-7.4c-3.5-3.5-6.2-7.6-8-12.2c-2-5.4-3-11.2-2.9-16.9
			c-0.1-5.8,0.9-11.5,3-16.9c1.8-4.6,4.6-8.8,8.2-12.3c3.4-3.3,7.5-5.8,11.9-7.5c4.6-1.7,9.4-2.5,14.3-2.5c4.9,0,9.9,0.8,14.5,2.5
			c4.5,1.6,8.5,4.2,11.9,7.5c3.5,3.5,6.2,7.7,8,12.3C318.9,49.6,319.8,55.4,319.7,61.1z M262.5,61.1c0,3.4,0.4,6.8,1.4,10
			c0.8,2.8,2.1,5.3,3.9,7.6c1.7,2.1,3.8,3.8,6.2,4.9c5.4,2.3,11.5,2.3,16.8,0c2.4-1.1,4.6-2.8,6.3-4.9c1.8-2.3,3.1-4.9,3.9-7.6
			c1-3.2,1.4-6.6,1.4-10c0-3.4-0.4-6.8-1.4-10c-0.8-2.8-2.1-5.4-3.9-7.7c-1.7-2.1-3.8-3.8-6.3-4.9c-2.6-1.2-5.5-1.8-8.4-1.7
			c-2.9,0-5.8,0.6-8.4,1.8c-2.4,1.2-4.5,2.9-6.2,5c-1.8,2.3-3.1,4.9-3.9,7.7C263,54.5,262.5,57.8,262.5,61.1z"/>
		<path class="st0" d="M385.4,95.8l-31.6-43.5v46.4h-16.7v-75h11.3c1.6,0,3.1,0.7,4.1,2c7,8.9,32.3,43.2,32.3,43.2V23.7h16.8v75H391
			C388.8,98.7,386.7,97.7,385.4,95.8z"/>
		<path class="st0" d="M484.4,61.1c0.1,5.8-0.9,11.6-3,17c-1.9,4.6-4.8,8.7-8.6,12c-4,3.3-8.6,5.7-13.6,7.1
			c-5.9,1.7-11.9,2.5-18,2.4c-3,0-6.6-0.1-10.6-0.4c-4-0.3-8-0.8-11.9-1.6v-73c4-0.7,8.1-1.2,12.2-1.5c4.2-0.3,7.8-0.4,10.9-0.4
			c5.9-0.1,11.8,0.6,17.5,2.1c4.9,1.3,9.5,3.6,13.5,6.8c3.8,3.2,6.8,7.3,8.7,11.9C483.5,49.3,484.5,55.2,484.4,61.1z M435.6,85
			c0.8,0.1,1.7,0.1,2.8,0.2s2.3,0.1,3.7,0.1c8.4,0,14.7-2.1,18.8-6.4c4.1-4.3,6.1-10.2,6.2-17.7c0-7.9-1.9-13.8-5.8-17.8
			c-3.9-4-10.1-6.1-18.5-6.1c-1.2,0-2.3,0-3.6,0.1c-1.2,0-2.4,0.1-3.5,0.3L435.6,85z"/>
		<path class="st0" d="M114.3,115.3c1.2,0.1,2.4,0.5,3.4,1.2l1.5-2.9c-1.4-1.1-3.1-1.6-4.9-1.6c-3,0-5.2,1.8-5.2,4.5
			c0,4.6,6.5,4.3,6.5,6.3c0,0.6-0.5,1-1.6,1c-1.3-0.2-2.6-0.7-3.7-1.4l-1.8,2.7c1.5,1.3,3.5,2.1,5.5,2.1c3.3,0,5.2-2.1,5.2-4.6
			c0-4.6-6.5-4.1-6.5-6.3C112.7,115.7,113.2,115.3,114.3,115.3z"/>
		<polygon class="st0" points="129.8,124 129.8,121.1 133.5,121.1 133.5,117.9 129.8,117.9 129.8,115.2 135.5,115.2 135.5,112 
			126.1,112 126.1,112 126.1,127.1 126.1,127.1 135.8,127.1 135.8,124 135.8,124 		"/>
		<path class="st0" d="M190.3,112v9l-4.9-8.2c-0.3-0.5-0.8-0.8-1.4-0.8h-2.8v15.2h3.7v-8.9l4.9,8.1c0.3,0.5,0.8,0.8,1.4,0.8h2.8V112
			H190.3z"/>
		<polygon class="st0" points="313.1,124 313.1,121.1 316.8,121.1 316.8,117.9 313.1,117.9 313.1,115.1 318.9,115.1 318.9,111.9 
			309.4,111.9 309.4,111.9 309.4,127.2 309.4,127.2 319.2,127.2 319.2,124 319.2,124 		"/>
		<polygon class="st0" points="424.5,124 424.5,121.2 428.3,121.2 428.3,118 424.5,118 424.5,115.2 430.3,115.2 430.3,112 
			420.8,112 420.8,112 420.8,127.2 420.8,127.2 430.6,127.2 430.6,124 430.6,124 		"/>
		<path class="st0" d="M149.6,115.3c1.4,0,2.7,0.5,3.8,1.3l1.7-2.7c-1.6-1.3-3.6-1.9-5.6-1.9c-4.2-0.2-7.7,3.1-7.8,7.3
			c-0.2,4.2,3.1,7.7,7.3,7.8c0.2,0,0.4,0,0.6,0c2,0.1,4-0.6,5.6-1.9l-1.6-2.7c-1.1,0.8-2.4,1.3-3.8,1.3c-2.2,0.2-4-1.4-4.2-3.6
			c0-0.2,0-0.4,0-0.6C145.4,117.1,146.7,115.3,149.6,115.3z"/>
		<path class="st0" d="M265.1,112.7l-2.3,4.4l-2.3-4.4c-0.2-0.4-0.7-0.7-1.1-0.7h-3.4l5,9v6.2h3.7V121l5-9h-3.4
			C265.8,112,265.4,112.2,265.1,112.7z"/>
		<path class="st0" d="M300.1,121.8c-0.2-0.3-0.4-0.6-0.6-0.9l0,0c1.5-0.9,2.3-2.4,2.3-4.1c0.1-1.9-1-3.7-2.8-4.4
			c-0.9-0.3-1.9-0.4-2.9-0.4h-5.3v15.2h2.5c0.6,0,1.2-0.5,1.2-1.2c0,0,0,0,0,0v-4h1.7l2.7,5.1h4.1L300.1,121.8z M296.1,118.8h-1.6
			v-3.7h1.3c0.5,0,1,0,1.4,0.2c0.6,0.3,1,0.9,0.9,1.6c0.1,1-0.6,1.8-1.6,1.9C296.4,118.9,296.2,118.9,296.1,118.8L296.1,118.8z"/>
		<path class="st0" d="M392.4,121.8c-0.2-0.3-0.4-0.6-0.6-0.9l0,0c1.5-0.9,2.3-2.4,2.3-4.1c0.1-1.9-1-3.7-2.8-4.4
			c-0.9-0.3-1.9-0.4-2.9-0.4h-5.3v15.2h2.5c0.6,0,1.2-0.5,1.2-1.2v0v-4h1.7l2.7,5.1h4.1L392.4,121.8z M388.4,118.8h-1.6v-3.7h1.2
			c0.5,0,1,0.1,1.4,0.2c0.6,0.3,1,0.9,0.9,1.6c0.1,1-0.6,1.8-1.6,1.9C388.6,118.9,388.5,118.9,388.4,118.8L388.4,118.8z"/>
		<path class="st0" d="M167.6,112c-4.1-0.2-7.5,3-7.7,7c0,0.2,0,0.3,0,0.5c0.2,4.2,3.7,7.6,8,7.4c4-0.1,7.3-3.4,7.4-7.4
			c0.1-4.1-3.1-7.4-7.2-7.5C167.9,112,167.8,112,167.6,112z M167.6,123.9c-2.3,0-4-1.9-4-4.4c-0.3-2.2,1.2-4.2,3.4-4.5
			c2.2-0.3,4.2,1.2,4.5,3.4c0,0.4,0,0.7,0,1.1C171.6,122,170,123.8,167.6,123.9L167.6,123.9z"/>
		<path class="st0" d="M207.2,112h-5.4v15.2h5.4c4.3,0,7.8-3.4,7.8-7.7c0,0,0-0.1,0-0.1C215,114.7,211.9,112,207.2,112z M207.1,124
			h-1.5v-8.8h1.5c2.5,0,4.1,1.5,4.1,4.4S209.7,124,207.1,124z"/>
		<path class="st0" d="M228.3,112.9c-0.1-0.6-0.7-1-1.3-1H224l-5.2,15.2h2.8c0.6,0,1.1-0.4,1.3-1l0.6-2.2h4.7l0.6,2.2
			c0.1,0.6,0.7,1,1.3,1h2.8l0,0L228.3,112.9z M224.5,121l0.9-2.9c0.3-1,0.6-2.6,0.6-2.6h0.1c0,0,0.3,1.7,0.6,2.6l0.9,2.9H224.5z"/>
		<path class="st0" d="M248.3,121.9c-0.2-0.3-0.4-0.6-0.6-0.9l0,0c1.5-0.9,2.3-2.4,2.3-4.1c0.1-1.9-1-3.7-2.8-4.4
			c-1-0.3-2-0.4-3-0.4h-5.3v15.2h2.6c0.6,0,1.2-0.5,1.2-1.2v-4h1.7l2.7,5.1h4.1L248.3,121.9z M244.3,118.9h-1.6v-3.7h1.3
			c0.5,0,1,0,1.4,0.2c0.6,0.3,1,0.9,0.9,1.6c0.1,1-0.6,1.8-1.6,1.9C244.5,118.9,244.4,118.9,244.3,118.9L244.3,118.9z"/>
		<path class="st0" d="M363.8,121.4c0,3.4,2.5,5.7,6.3,5.7s6.2-2.4,6.2-5.7V112h-2.5c-0.6,0-1.1,0.5-1.1,1.1c0,0,0,0,0,0v8.1
			c0,1.4-1.2,2.6-2.6,2.6c-1.3,0.2-2.4-0.7-2.6-2c0-0.1,0-0.3,0-0.4v-8.3c0-0.6-0.5-1.1-1.1-1.1c0,0,0,0,0,0h-2.5V121.4z"/>
		<path class="st0" d="M331.8,115.3c1.2,0.1,2.4,0.5,3.4,1.2l1.5-2.9c-1.4-1.1-3.1-1.6-4.9-1.6c-3,0-5.3,1.8-5.3,4.5
			c0,4.6,6.5,4.3,6.5,6.4c0,0.6-0.5,1-1.6,1c-1.3-0.2-2.6-0.7-3.7-1.4l-1.9,2.7c1.5,1.3,3.5,2.1,5.5,2.1c3.3,0,5.2-2.1,5.2-4.6
			c0-4.7-6.5-4.1-6.5-6.3C330.2,115.7,330.7,115.3,331.8,115.3z"/>
		<path class="st0" d="M350.2,112c-4.1-0.2-7.5,3-7.7,7c0,0.2,0,0.3,0,0.5c0.2,4.2,3.7,7.6,8,7.4c4-0.1,7.3-3.4,7.4-7.4
			c0.1-4.1-3.1-7.4-7.2-7.5C350.5,112,350.4,112,350.2,112z M350.2,123.9c-2.3,0-4-1.9-4-4.4c-0.3-2.2,1.2-4.2,3.4-4.5
			c2.2-0.3,4.2,1.2,4.5,3.4c0,0.4,0,0.7,0,1.1C354.2,122,352.5,123.9,350.2,123.9L350.2,123.9z"/>
		<path class="st0" d="M443.2,115.2c1.2,0.1,2.4,0.5,3.4,1.2l1.5-2.9c-1.4-1.1-3.1-1.6-4.9-1.6c-3,0-5.3,1.8-5.3,4.5
			c0,4.6,6.5,4.3,6.5,6.4c0,0.6-0.5,1-1.6,1c-1.3-0.2-2.6-0.7-3.7-1.4l-1.8,2.7c1.5,1.3,3.5,2.1,5.5,2.1c3.3,0,5.2-2.1,5.2-4.6
			c0-4.7-6.5-4.1-6.5-6.3C441.6,115.6,442.1,115.2,443.2,115.2z"/>
		<path class="st0" d="M408.5,115.3c1.4,0,2.7,0.5,3.7,1.3l1.7-2.7c-1.6-1.3-3.6-1.9-5.6-1.9c-4.2-0.2-7.7,3.1-7.8,7.3
			c-0.2,4.2,3.1,7.7,7.3,7.8c0.2,0,0.4,0,0.6,0c2,0.1,4-0.6,5.6-1.9l-1.7-2.7c-1.1,0.8-2.4,1.3-3.7,1.3c-2.2,0.2-4-1.4-4.2-3.6
			c0-0.2,0-0.4,0-0.6C404.3,117.1,405.6,115.3,408.5,115.3z"/>
		<path class="st0" d="M69.2,44c10.8-8,13.1-23.3,5-34.2C69.7,3.7,62.4,0,54.7,0H24.7L0,126.4h46.1c24.5,0,44.5-19.8,44.5-44.4
			C90.6,66.5,82.5,52.1,69.2,44z M7,122.3c44.3-14.6,65.8-57.1,38.2-81.5c-0.1,0-0.2,0-0.3,0l-6.3,3.1c-0.2,0.1-0.3,0-0.4-0.2
			c0-0.1,0-0.1,0-0.2l1.4-6.9c0-0.1,0-0.2-0.1-0.3l-4.9-5.1c-0.1-0.1-0.1-0.3,0-0.4c0,0,0.1-0.1,0.2-0.1l7-0.8
			c0.1,0,0.2-0.1,0.2-0.2l3.3-6.2c0.1-0.2,0.3-0.2,0.4-0.1c0.1,0,0.1,0.1,0.1,0.1l2.9,6.4c0,0.1,0.1,0.2,0.2,0.2l6.9,1.3
			c0.2,0,0.3,0.2,0.2,0.4c0,0.1,0,0.1-0.1,0.2L52,35.8c9,8.4,13.3,18.7,13.3,29.4C65.3,88.5,44.4,113.4,7,122.3z"/>
	</g>
</g>
</svg>
