<?xml version="1.0" encoding="UTF-8" standalone="no"?>
<svg
   xmlns:dc="http://purl.org/dc/elements/1.1/"
   xmlns:cc="http://creativecommons.org/ns#"
   xmlns:rdf="http://www.w3.org/1999/02/22-rdf-syntax-ns#"
   xmlns:svg="http://www.w3.org/2000/svg"
   xmlns="http://www.w3.org/2000/svg"
   viewBox="0 0 969.26666 618.10669"
   xml:space="preserve"
   id="svg2"
   version="1.1"><defs
     id="defs6" /><g
     transform="matrix(1.3333333,0,0,-1.3333333,0,618.10667)"
     id="g10"><g
       transform="scale(0.1)"
       id="g12"><path
         id="path14"
         style="fill:#ffffff;fill-opacity:1;fill-rule:evenodd;stroke:none"
         d="m 5766.36,1663.46 c -213.38,0 -292.47,95.64 -292.47,259.32 0,174.71 57.02,459.78 112.21,1099.79 9.19,93.79 64.37,145.28 158.18,145.28 84.61,0 128.76,-40.46 128.76,-117.7 0,-9.2 0,-18.39 -108.53,-1059.32 0,-33.11 5.52,-51.5 29.44,-51.5 91.96,0 141.63,-40.46 141.63,-117.7 0,-101.15 -75.42,-158.17 -169.22,-158.17 z m -369.88,825.76 -207.86,-163.68 c 71.74,-163.68 198.66,-408.28 198.66,-525.98 -9.2,-84.6 -68.06,-126.9 -132.43,-126.9 -49.67,0 -101.18,25.75 -130.61,75.39 l -171.06,423.01 c -11.04,-7.36 -132.44,-104.83 -143.48,-115.87 l -23.91,-235.41 c -9.2,-93.79 -58.86,-141.61 -156.35,-141.61 -84.61,0 -126.92,38.62 -126.92,114.02 0,9.2 0,18.4 126.92,1228.54 11.04,95.63 58.86,143.45 154.52,143.45 86.44,0 128.75,-38.63 128.75,-115.87 0,-9.19 0,-36.78 -64.38,-640.01 l 388.12,297.94 c 33.1,23.91 64.37,34.94 99.32,34.94 71.74,0 130.6,-62.53 130.6,-134.25 -5.52,-60.69 -23.91,-86.44 -69.89,-117.71 z M 4388.33,1819.78 c -9.2,-93.79 -62.54,-141.61 -158.19,-141.61 -82.78,0 -128.76,38.62 -128.76,115.87 0,9.2 0,16.55 1.84,25.74 53.34,522.31 55.18,529.67 55.18,537.03 0,93.79 -60.7,139.77 -121.4,139.77 -73.57,0 -150.83,-55.18 -161.86,-163.68 l -53.34,-513.12 c -9.2,-93.79 -60.69,-141.61 -158.19,-141.61 -82.77,0 -125.05,38.62 -125.05,114.02 0,9.2 0.03,18.4 82.8,803.7 7.36,77.25 60.78,147.13 152.74,147.13 91.98,0 130.75,-60.69 130.75,-115.86 v -11.04 c 73.88,73.57 159.88,132.42 270.25,132.42 130.59,0 275.84,-80.93 275.84,-305.3 0,-18.38 -1.92,-38.61 -62.61,-623.46 z m -880.76,1298.64 -118.96,-115.93 c -3.44,-3.35 -5,-8.18 -4.19,-12.9 l 28.08,-163.7 c 2.04,-11.91 -10.46,-20.99 -21.16,-15.37 l -147.03,77.29 c -4.25,2.23 -9.32,2.23 -13.57,0 l -147.03,-77.29 c -10.7,-5.62 -23.2,3.46 -21.16,15.37 l 28.08,163.7 c 0.81,4.72 -0.76,9.55 -4.19,12.9 l -118.95,115.93 c -8.66,8.43 -3.88,23.13 8.08,24.87 l 164.38,23.88 c 4.75,0.69 8.86,3.67 10.98,7.97 l 73.52,148.94 c 5.35,10.83 20.8,10.83 26.15,0 l 73.52,-148.94 c 2.12,-4.3 6.22,-7.28 10.97,-7.97 l 164.39,-23.88 c 11.96,-1.74 16.74,-16.44 8.09,-24.87 z M 3292.24,1663.46 c -204.18,0 -296.13,93.79 -296.13,244.6 0,14.72 0.04,27.59 69.94,684.15 9.2,95.64 64.46,141.62 156.44,141.62 86.45,0 132.59,-36.79 132.59,-117.71 0,-7.35 -1.53,-14.71 -64.05,-619.78 v -12.88 c 0,-20.22 3.35,-44.13 29.1,-44.13 91.97,0 141.49,-40.46 141.49,-117.7 0,-101.15 -75.57,-158.17 -169.38,-158.17 z m -330.79,877.26 c -9.19,-20.23 -62.54,-152.65 -325.57,-744.84 -34.95,-79.09 -95.65,-115.87 -160.03,-115.87 -69.9,0 -115.88,40.47 -134.28,121.38 -47.82,204.14 -38.63,246.45 -88.29,457.94 l -189.46,-461.62 c -33.11,-77.23 -91.97,-119.54 -167.39,-119.54 -77.25,0 -128.76,44.14 -147.15,123.22 -152.67,654.73 -176.58,770.59 -176.58,798.18 0,95.63 71.74,150.81 158.19,150.81 73.57,0 114.04,-34.95 136.11,-106.67 l 84.62,-538.86 183.94,531.5 c 25.75,75.41 99.32,112.19 163.7,112.19 58.87,0 137.96,-40.46 149,-117.7 l 75.41,-516.79 178.43,529.66 c 25.75,75.4 84.61,108.5 158.18,108.5 91.98,0 123.25,-36.78 123.25,-112.18 0,-42.3 -9.2,-71.73 -22.08,-99.31 z m -1611.63,-51.46 h -82.78 c -47.82,-460.3 -49.66,-484.62 -49.66,-501.18 0,-33.1 5.52,-48.75 29.43,-48.75 91.97,0 141.63,-40.47 141.63,-117.7 0,-101.15 -75.41,-158.17 -169.22,-158.17 -222.572,0 -288.79,104.83 -288.79,283.22 0,33.11 1.843,69.89 51.504,548.05 -66.219,7.36 -117.723,29.43 -117.723,97.47 0,88.28 66.219,126.89 143.479,136.08 l 7.35,71.71 c 9.2,91.95 62.54,139.72 156.35,139.72 86.46,0 130.6,-38.72 130.6,-115.96 0,-7.36 -1.84,-16.27 -9.2,-95.82 h 79.1 c 90.13,0 136.11,-20.95 136.11,-98.19 0,-102.99 -66.21,-140.48 -158.18,-140.48 z m 5919.73,581.15 c 0,455.15 -369.04,824.13 -824.26,824.13 -265.77,0 -502.09,-125.78 -652.83,-321.01 -233.09,620.58 -831.96,1062.25 -1534.09,1062.25 -527.88,0 -997.37,-249.7 -1296.98,-637.33 -51.53,10.09 -104.77,15.43 -159.25,15.43 -331.88,0 -617.9,-196.14 -748.56,-478.77 -206.02,128.5 -449.33,202.82 -710.04,202.82 C 601.523,3737.93 0,3136.5 0,2394.61 0,1665.62 580.77,1072.31 1304.92,1051.86 1438.08,450.109 1974.75,0 2616.66,0 3145.35,0 3602.63,305.371 3821.92,749.281 3976.31,643.32 4163.19,581.27 4364.61,581.27 c 430.4,0 794.65,283.152 916.6,673.3 122.3,-56.45 258.44,-87.99 401.98,-87.99 530.29,0 960.17,429.81 960.17,960.02 0,47.96 -3.56,95.09 -10.35,141.16 364.78,84.95 636.54,412.06 636.54,802.65" /></g></g></svg>