<svg id="Layer_1" data-name="Layer 1" xmlns="http://www.w3.org/2000/svg" viewBox="0 0 49 7.76"><defs><style>.cls-1{fill:#1c1c1c;}</style></defs><title>Twinkl-Burn</title><g id="Layer0_0_FILL" data-name="Layer0 0 FILL"><path  d="M32.89,2a2.31,2.31,0,0,0-1.81.8,3,3,0,0,0-.73,2.09A2.94,2.94,0,0,0,31.06,7,2.48,2.48,0,0,0,33,7.74a2,2,0,0,0,1.15-.37,2.75,2.75,0,0,0,.73-.82L33.79,6c-.13.21-.22.34-.26.39a.73.73,0,0,1-.54.19,1.16,1.16,0,0,1-.93-.47,1.83,1.83,0,0,1-.39-1.21A2,2,0,0,1,32,3.65a1,1,0,0,1,.86-.47,1,1,0,0,1,.91.58l1.09-.57A2.32,2.32,0,0,0,34,2.32,2.26,2.26,0,0,0,32.89,2m7,.78a2.43,2.43,0,0,0-3.57,0,3.27,3.27,0,0,0-.62,2.09A3.23,3.23,0,0,0,36.32,7a2.44,2.44,0,0,0,3.57,0,3.21,3.21,0,0,0,.61-2.09,3.23,3.23,0,0,0-.61-2.09M38.11,6.55C37.35,6.55,37,6,37,4.87s.37-1.68,1.13-1.68,1.13.56,1.13,1.68-.38,1.68-1.13,1.68m4.65-3.61V2.15h-1.3V7.6h1.3V4.86a3.58,3.58,0,0,1,.15-1.22.6.6,0,0,1,.59-.45.64.64,0,0,1,.6.45,4,4,0,0,1,.14,1.22V7.6h1.31V4.86a3.37,3.37,0,0,1,.16-1.22.6.6,0,0,1,.58-.45.61.61,0,0,1,.58.45A3.92,3.92,0,0,1,47,4.86V7.6h1.32V4.2a2.8,2.8,0,0,0-.41-1.65A1.22,1.22,0,0,0,46.87,2a1.32,1.32,0,0,0-.9.44,2.48,2.48,0,0,0-.58.78,2.14,2.14,0,0,0-.25-.65,1.1,1.1,0,0,0-1-.57,1.37,1.37,0,0,0-.86.33,2.58,2.58,0,0,0-.52.61M12,2.15V7.6h1.32V2.15H12m.15-1.9a.8.8,0,0,0-.23.56.83.83,0,0,0,.23.58.7.7,0,0,0,1,0,.82.82,0,0,0,.22-.58.76.76,0,0,0-.22-.56.67.67,0,0,0-1,0M28.77,6.1a.81.81,0,0,0-.58.25.79.79,0,0,0-.25.58.86.86,0,0,0,.25.6.86.86,0,0,0,1.17,0,.82.82,0,0,0,.25-.6.76.76,0,0,0-.25-.58.82.82,0,0,0-.59-.25M19.13,7.6V4.2a2.49,2.49,0,0,0-.52-1.63A1.37,1.37,0,0,0,17.53,2a1.83,1.83,0,0,0-1,.29,2,2,0,0,0-.67.67V2.15h-1.3V7.6h1.3V4.87a2.33,2.33,0,0,1,.31-1.36.82.82,0,0,1,.71-.32.75.75,0,0,1,.67.32,2.69,2.69,0,0,1,.24,1.35V7.6h1.31M21.59.2h-1.3V7.6h1.3V5.34l.08-.12L23.25,7.6h1.49l-2.12-3,2-2.4H23L21.59,4V.2m5.19,0H25.46v6a1.52,1.52,0,0,0,.44,1.23,2.16,2.16,0,0,0,1.35.32V6.61c-.31,0-.47-.15-.47-.45V.2m-21.3,2H4.18L5.79,7.6h1l.73-3.38L8.22,7.6H9.34l1.6-5.45H9.7L8.83,5.52l-.65-3.4H7L6.34,5.54,5.48,2.15m-2.78,0V.87H1.38V2.15H.67V3.31h.71V6.1a1.48,1.48,0,0,0,.41,1.18,2.16,2.16,0,0,0,1.47.39h.21V6.57H3.26c-.37,0-.56-.16-.56-.48V3.31h.78V2.15Z"/></g></svg>